<svg xmlns="http://www.w3.org/2000/svg" fill="none" viewBox="0 0 394 80">
  <path fill="#fff" d="M261.919 0.0330722H330.547V12.7H303.323V79.339H289.71V12.7H261.919V0.0330722Z"/>
  <path fill="#fff" d="M149.052 0.0330722V12.7H94.0421V33.0772H138.281V45.7441H94.0421V66.6721H149.052V79.339H80.43V12.7H80.4243V0.0330722H149.052Z"/>
  <path fill="#fff" d="M183.32 0.0661486H165.506L229.312 79.3721H247.178L215.271 39.7464L247.127 0.126654H229.312L206.352 28.6704L183.32 0.0661486Z"/>
  <path fill="#fff" d="M201.6 56.7148L192.679 45.6229L165.455 79.4052H183.32L201.6 56.7148Z"/>
  <path fill="#fff" fill-rule="evenodd" d="M80.907 79.339L17.0151 0H0V79.3059H13.6121V16.9516L63.8067 79.339H80.907Z" clip-rule="evenodd"/>
  <path fill="#fff" d="M333.607 78.8546C332.61 78.8546 331.762 78.5093 331.052 77.8186C330.342 77.1279 329.991 76.2917 330 75.3011C329.991 74.3377 330.342 73.5106 331.052 72.8199C331.762 72.1292 332.61 71.7838 333.607 71.7838C334.566 71.7838 335.405 72.1292 336.115 72.8199C336.835 73.5106 337.195 74.3377 337.205 75.3011C337.195 75.9554 337.023 76.5552 336.691 77.0914C336.368 77.6368 335.93 78.064 335.377 78.373C334.834 78.6911 334.243 78.8546 333.607 78.8546Z"/>
  <path fill="#fff" d="M356.84 45.4453H362.872V68.6846C362.863 70.8204 362.401 72.6472 361.498 74.1832C360.604 75.7191 359.347 76.8914 357.726 77.7185C356.106 78.5364 354.207 78.9546 352.029 78.9546C350.235 78.9546 348.598 78.6548 347.118 78.0551C345.637 77.4554 344.421 76.5737 343.468 75.4196C342.534 74.2655 341.993 72.8881 341.945 71.2873H348.015C348.092 71.9507 348.34 72.5232 348.76 73.0145C349.179 73.4966 349.722 73.8601 350.387 74.105C351.053 74.3407 351.775 74.4586 352.555 74.4586C353.563 74.4586 354.419 74.2655 355.119 73.8694C355.829 73.4733 356.358 72.8881 356.706 72.1138C357.054 71.3487 357.219 70.4214 357.219 69.3404V64.2889H356.84C356.6 64.9897 356.223 65.6352 355.701 66.2533C355.179 66.8714 354.505 67.3717 353.678 67.7541C352.861 68.1274 351.89 68.3186 350.768 68.3186C349.111 68.3186 347.637 67.9361 346.344 67.1711C345.061 66.3969 344.055 65.2428 343.324 63.7087C342.603 62.1654 342.243 60.2937 342.243 58.0795C342.243 55.8469 342.603 53.9478 343.324 52.3772C344.055 50.8066 345.071 49.6252 346.372 48.8328C347.675 48.0404 349.159 47.6442 350.825 47.6442C351.947 47.6442 352.918 47.8399 353.735 48.2224C354.562 48.6048 355.236 49.1097 355.758 49.7278C356.28 50.3459 356.658 50.9914 356.897 51.6643H357.219V45.4453H356.84ZM352.792 63.9034C353.801 63.9034 354.657 63.6497 355.367 63.1422C356.077 62.6255 356.62 61.8841 356.991 60.9178C357.371 59.9424 357.561 58.7882 357.561 57.4553C357.561 56.1223 357.371 54.9591 356.991 53.9654C356.611 52.9718 356.068 52.2029 355.358 51.6587C354.657 51.1144 353.801 50.8423 352.792 50.8423C351.764 50.8423 350.9 51.1144 350.198 51.6587C349.497 52.2029 348.969 52.9718 348.608 53.9654C348.247 54.9591 348.072 56.1223 348.072 57.4553C348.072 58.7882 348.252 59.9424 348.627 60.9178C349.007 61.8841 349.544 62.6255 350.255 63.1422C350.956 63.6497 351.802 63.9034 352.792 63.9034Z"/>
  <path fill="#fff" d="M387.691 54.5665C387.539 53.1513 386.898 52.0471 385.779 51.2547C384.66 50.4531 383.172 50.0523 381.337 50.0523C380.029 50.0523 378.932 50.2435 378.041 50.6259C377.16 51.0084 376.497 51.5359 376.059 52.2029C375.63 52.87 375.411 53.6359 375.411 54.5006C375.411 55.2202 375.582 55.8383 375.914 56.3458C376.255 56.8533 376.707 57.2776 377.274 57.6236C377.84 57.9603 378.456 58.2429 379.131 58.4713C379.806 58.6905 380.491 58.8725 381.175 59.0172L383.676 59.6263C384.722 59.8547 385.74 60.1654 386.729 60.5584C387.719 60.9514 388.6 61.4589 389.376 62.0862C390.152 62.7135 390.766 63.4794 391.211 64.3931C391.657 65.3067 391.885 66.3969 391.885 67.6638C391.885 69.3953 391.439 70.8929 390.557 72.1598C389.685 73.4267 388.428 74.4022 386.795 75.0863C385.173 75.7705 383.22 76.1125 380.956 76.1125C378.76 76.1125 376.859 75.7797 375.258 75.1141C373.656 74.4485 372.408 73.4733 371.517 72.1873C370.636 70.9014 370.172 69.3129 370.125 67.4218H375.746C375.812 68.4155 376.1 69.2307 376.611 69.8672C377.132 70.4946 377.802 70.9566 378.627 71.2533C379.463 71.5501 380.387 71.6939 381.403 71.6939C382.76 71.6939 383.922 71.4929 384.889 71.0909C385.865 70.6889 386.604 70.1171 387.106 69.3755C387.608 68.6338 387.853 67.7679 387.853 66.7834C387.853 65.8812 387.6 65.1395 387.087 64.5582C386.575 63.977 385.846 63.5023 384.898 63.1422C383.95 62.7821 382.855 62.4495 381.612 62.1528L378.589 61.3879C376.224 60.7867 374.359 59.8822 372.996 58.6722C371.632 57.4553 370.95 55.8108 370.95 53.7297C370.95 52.007 371.415 50.5094 372.343 49.2425C373.281 47.9664 374.548 46.9819 376.143 46.2889C377.747 45.5959 379.549 45.2494 381.546 45.2494C383.571 45.2494 385.344 45.5959 386.879 46.2889C388.419 46.9819 389.629 47.9664 390.51 49.2425C391.39 50.5094 391.847 51.9938 391.885 53.6957H387.691V54.5665Z"/>
</svg> 