<svg xmlns="http://www.w3.org/2000/svg" viewBox="0 0 512 512">
  <rect width="512" height="512" rx="50" fill="#3178c6"/>
  <path fill="#fff" d="M317 407v50c8.1 4.2 18 7.3 29 9.4s23 3.1 35 3.1c12 0 23-1.1 34-3.4 11-2.3 20-6.1 28-11 8.1-5.3 15-12 19-21s7.1-19 7.1-32c0-9.1-1.4-17-4.1-24s-6.6-13-12-18c-5.1-5.3-11-10-18-14s-15-8.2-24-12c-6.6-2.7-12-5.3-18-7.9-5.2-2.6-9.6-5.2-13-7.8-3.4-2.7-6-5.5-7.8-8.4-1.8-3-2.6-6.7-2.6-11 0-3.6.8-6.9 2.5-9.8s4-5.4 7.2-7.4c3.1-2 6.8-3.6 11-4.6 4.5-1.1 9.4-1.6 15-1.6 4.1 0 8.4.3 13 .8 4.5.5 9 1.4 14 2.7 4.5 1.3 8.9 2.9 13 4.8 4.3 1.9 8 4.2 11 6.7v-47c-7.6-2.9-16-5.1-25-6.5s-19-2.1-31-2.1c-12 0-23 1.3-34 3.8s-20 6.5-28 12c-8.1 5.4-14 12-19 21-4.7 8.4-7 18-7 30 0 15 4.3 28 13 38 8.6 11 22 19 39 27 6.9 2.8 13 5.6 19 8.3s11 5.5 15 8.4c4.3 2.9 7.7 6.1 10 9.5 2.5 3.4 3.8 7.4 3.8 12 0 3.2-.7 6.2-2 9s-3.3 5.2-6.1 7.2-6.3 3.6-11 4.8c-4.2 1.1-9.1 1.7-15 1.7-11 0-22-1.9-32-5.7-11-3.8-21-9.5-28.1-15.44zM212 271v-58h-51v229h51V323c0-18 2.2-32.3 6.5-43 4.3-10.6 10-15.9 19.3-16 3.5 0 6.5.7 9.1 2 2.5 1.3 4.8 3.2 6.8 5.7l9.9 13.9 32.1-31.5c-4.4-6.2-8.5-11.5-12.3-15.7s-7.8-7.6-11.9-10.4-8.3-4.9-13-6.2c-4.6-1.3-9.8-2-15.5-2-11.7 0-21.2 2.9-28.5 8.7-7.3 5.8-13.2 14-17.5 24.5h-1v-30.1z"/>
</svg>
